<svg id="Capa_1" enable-background="new 0 0 512 512" height="512" viewBox="0 0 512 512" width="512" xmlns="http://www.w3.org/2000/svg"><g><g><g id="AJFsOz.tif_1_"><g><path d="m254.887 142.201c-96.344-.735-227.271 49.414-249.482 156.776-6.287 30.389 5.988 49.968 36.4 55.357 15.356 2.722 31.054 3.891 46.652 4.751 31.924 1.76 61.455 11.22 84.6 33.2 18.792 17.845 35.201 38.58 50.738 59.487 36.021 48.47 100.147 69.632 158.714 56.32 67.616-15.369 115.248-76.211 124.18-144.218 2.806-21.364 1.706-43.216-3.406-64.149-26.446-108.292-141.379-156.707-248.396-157.524z" fill="#e17f85"/><path d="m503.281 299.724c-26.445-108.291-141.377-156.706-248.394-157.523-5.453-.042-11.021.088-16.67.374 102.917 4.703 209.306 53.492 234.619 157.149 5.112 20.934 6.212 42.786 3.406 64.15-8.932 68.007-56.564 128.848-124.18 144.218-6.584 1.497-13.239 2.534-19.916 3.169 16.723 1.601 33.766.603 50.362-3.169 67.615-15.369 115.248-76.211 124.18-144.218 2.805-21.364 1.705-43.216-3.407-64.15z" fill="#de646e"/><path d="m347.487 481.554c-39.842-.002-76.948-17.925-99.256-47.944-14.891-20.037-32.976-43.239-54.21-63.403-26.552-25.215-61.505-39.185-103.889-41.521-14.01-.773-28.919-1.832-43.014-4.331-7.059-1.251-10.72-3.398-11.708-4.857-1.117-1.648-1.837-6.396-.191-14.354 10.314-49.855 49.613-80.728 80.763-97.849 39.484-21.701 90.628-34.657 136.812-34.657.62 0 1.244.002 1.861.007 51.484.393 101.072 12.646 139.63 34.501 42.395 24.03 69.116 57.608 79.419 99.8 4.208 17.231 5.149 35.051 2.797 52.962-3.676 27.984-15.479 55.067-33.235 76.259-18.207 21.73-41.551 36.335-67.507 42.235-9.199 2.091-18.71 3.152-28.268 3.152-.001 0-.003 0-.004 0z" fill="#efc2c6"/><path d="m473.705 306.947c-10.303-42.192-37.024-75.77-79.419-99.8-38.558-21.855-88.147-34.108-139.63-34.501-.617-.004-1.241-.007-1.861-.007-4.763 0-9.582.146-14.432.416 46.361 2.321 90.467 14.247 125.478 34.092 42.395 24.03 69.116 57.608 79.419 99.8 4.208 17.231 5.149 35.051 2.797 52.962-3.676 27.984-15.479 55.067-33.235 76.259-18.207 21.73-41.551 36.335-67.507 42.235-4.325.983-8.72 1.729-13.154 2.254 5.046.59 10.163.897 15.328.898h.005c9.558 0 19.068-1.06 28.268-3.152 25.956-5.9 49.3-20.504 67.507-42.235 17.756-21.191 29.559-48.275 33.235-76.259 2.349-17.912 1.409-35.731-2.799-52.962z" fill="#eab2b7"/></g></g><circle cx="368.317" cy="371.535" fill="#e17f85" r="34.21"/><path d="m368.317 337.324c-5.471 0-10.637 1.291-15.223 3.574 11.252 5.602 18.987 17.213 18.987 30.636s-7.735 25.034-18.987 30.636c4.586 2.283 9.752 3.574 15.223 3.574 18.894 0 34.21-15.316 34.21-34.21 0-18.893-15.316-34.21-34.21-34.21z" fill="#de646e"/><g><path d="m261.639 372.546c-1.947 0-3.896-.743-5.383-2.229-2.972-2.972-2.972-7.792 0-10.764l109.436-109.437c2.973-2.972 7.792-2.972 10.765 0 2.972 2.972 2.972 7.792 0 10.764l-109.435 109.437c-1.487 1.486-3.435 2.229-5.383 2.229z" fill="#e5979d"/></g><g><path d="m209.724 333.123c-1.947 0-3.896-.743-5.383-2.229-2.972-2.972-2.972-7.792 0-10.764l103.83-103.83c2.973-2.972 7.792-2.972 10.765 0 2.972 2.972 2.972 7.792 0 10.764l-103.83 103.83c-1.486 1.485-3.434 2.229-5.382 2.229z" fill="#e5979d"/></g><g><path d="m147.357 304.152c-1.947 0-3.896-.743-5.383-2.229-2.972-2.972-2.972-7.792 0-10.764l80.611-80.611c2.973-2.972 7.792-2.972 10.765 0 2.972 2.972 2.972 7.792 0 10.764l-80.611 80.611c-1.486 1.486-3.435 2.229-5.382 2.229z" fill="#e5979d"/></g></g><g><g><g><path d="m256 99.55c-1.947 0-3.896-.743-5.383-2.229-7.068-7.069-10.961-16.467-10.961-26.464s3.893-19.395 10.961-26.464c8.657-8.657 8.657-22.743 0-31.4-2.972-2.972-2.972-7.792 0-10.764 2.973-2.972 7.792-2.972 10.765 0 14.592 14.592 14.592 38.336 0 52.928-8.657 8.657-8.657 22.742 0 31.399 2.972 2.972 2.972 7.792 0 10.764-1.486 1.487-3.435 2.23-5.382 2.23z" fill="#e2dfe3"/></g></g><g><g><g><path d="m301.669 107.475c-1.948 0-3.896-.743-5.383-2.229-11.487-11.488-11.487-30.18 0-41.668 5.552-5.552 5.552-14.586 0-20.139-2.972-2.973-2.972-7.792.001-10.764 2.972-2.973 7.792-2.973 10.764 0 11.487 11.488 11.487 30.18 0 41.667-5.552 5.553-5.552 14.587 0 20.139 2.972 2.973 2.972 7.792-.001 10.764-1.485 1.487-3.434 2.23-5.381 2.23z" fill="#e2dfe3"/></g></g><g><g><path d="m210.331 107.475c-1.948 0-3.896-.743-5.383-2.229-11.487-11.488-11.487-30.18 0-41.668 5.552-5.552 5.552-14.586 0-20.139-2.972-2.973-2.972-7.792.001-10.764 2.972-2.973 7.792-2.973 10.764 0 11.487 11.488 11.487 30.18 0 41.667-5.552 5.553-5.552 14.587 0 20.139 2.972 2.973 2.972 7.792-.001 10.764-1.485 1.487-3.434 2.23-5.381 2.23z" fill="#e2dfe3"/></g></g></g></g></g></svg>